<?xml version="1.0" encoding="UTF-8"?>
<svg xmlns="http://www.w3.org/2000/svg" version="1.1" viewBox="0 0 1080 1030">
  <!-- Generator: Adobe Illustrator 29.3.1, SVG Export Plug-In . SVG Version: 2.1.0 Build 151)  -->
  <defs>
    <style>
      .st0 {
        fill: #2e7d32;
      }

      .st1 {
        fill: #06152a;
      }

      .st2 {
        fill: #39b54a;
      }

      .st3 {
        stroke-width: .68px;
      }

      .st3, .st4, .st5 {
        fill: #fff;
      }

      .st3, .st5 {
        stroke: #000;
        stroke-miterlimit: 10;
      }

      .st5 {
        stroke-width: .26px;
      }

      .st6 {
        font-family: Constantia, Constantia;
        font-size: 80.42px;
      }

      .st7 {
        fill: none;
      }

      .st8 {
        font-family: Georgia, Georgia;
        font-size: 95.86px;
      }

      .st9 {
        fill: #006837;
      }
    </style>
  </defs>
  <g id="Camada_1">
    <path class="st5" d="M304.06,765.54"/>
  </g>
  <g id="Camada_2">
    <rect class="st0" x=".17" y="301.74" width="1080" height="399.83"/>
    <path class="st7" d="M507.2,565.51c4.88-.11,9.75-.23,14.63-.34"/>
    <path class="st7" d="M408.81,585.11c4.88-.11,9.75-.23,14.63-.34"/>
    <path class="st7" d="M502,581.98c4.17-.1,8.34-.19,12.51-.29"/>
    <text class="st8" transform="translate(371.28 592.1) scale(1.29 1)"><tspan x="0" y="0">BCM </tspan></text>
    <ellipse class="st9" cx="500.13" cy="408.59" rx="128.85" ry="93.06"/>
    <path class="st1" d="M613.47,414.84c-5.26,43.45-59.58,75.51-121.33,71.61-61.75-3.9-107.54-42.28-102.28-85.73,5.26-43.45,59.58-75.51,121.33-71.61,61.75,3.9,107.54,42.28,102.28,85.73Z"/>
    <ellipse class="st2" cx="501.67" cy="408.59" rx="97.11" ry="65.89"/>
    <path class="st4" d="M433.57,385.73c.86.55,2.25.14,3.93.55,2.48.61,4.1,2.64,2.88,3.44-1,.66-3.67.34-4.19.28.7,5.32,1.4,10.64,2.09,15.96,1.89-1.08,2.79-1.03,3.14-.96,1.35.27.4,2.12.79,4.13.55,2.86,3.37,3.74,9.95,9.35,4.37,3.73,3.03,3.26,5.24,4.81,6.09,4.29,10.38,3.67,17.28,7.56,2.53,1.43,8.65,4.98,9.16,10.04.21,2.09-.59,3.82-1.31,4.95,4.05.93,9.16,2.41,14.13,4.81,1.82.88,3.38,1.77,4.71,2.61.17,5.27.35,10.55.52,15.82.79.37,1.57.73,2.36,1.1,1.75-1.24,3.49-2.48,5.23-3.71,1.66-3.48,3.32-6.97,4.97-10.45,4.28-3.03,8.55-6.05,12.83-9.08-.44-1.93-.87-3.85-1.31-5.78-3.16-.11-7.71-.55-10.47-2.34-3.15-2.05-1.62-4.35-4.45-5.5-1.69-.68-5.17-1.06-13.35,1.1-1.48.96-2.97,1.93-4.45,2.89-4.71-3.35-9.42-6.69-14.13-10.04,1.56-5.11,1.13-6.81,0-7.01-1.76-.32-4.82,3.08-6.81,2.75-1.63-.27-1.62-2.88-1.05-5.91.93-1.36,3.66-4.78,9.95-6.46,1.54-.41,4.21-1.12,7.07-.69.64.1,1.99.36,4.71,1.93,3.9,2.24,4.8,3.8,5.5,3.71,1.33-.17-3.36-5.65-.52-11.14,3.22-6.23,12.64-5.72,15.97-12.38,1.91-3.82-.16-6.04,3.93-8.67,3.03-1.94,5.33-1.47,9.95-3.3,10.29-4.08,11.22-11.34,11.26-11.69.16-1.57.63-6.25-5.24-9.63-1.48-.85-6.36-3.35-23.3-3.58-9.46-.12-24.98-.33-42.4,4.54-26.73,7.46-34.22,20.23-34.55,21.59-.07.28-.03.87-.26,2.61-.14,1.08-.24,1.47.26,1.79Z"/>
    <path class="st3" d="M672.83,442.95"/>
    <text class="st6" transform="translate(299.4 676.33)"><tspan x="0" y="0">Sustentaveis</tspan></text>
  </g>
</svg>